<svg width="32" height="32" viewBox="0 0 32 32" fill="none" xmlns="http://www.w3.org/2000/svg">
<path d="M3.7952 8.2224C3.8148 8.02762 3.78855 7.83096 3.71854 7.64815C3.64852 7.46534 3.53669 7.30145 3.392 7.1696L0.4032 3.5424V3H9.68L16.8512 18.848L23.1552 3H32V3.5424L29.4448 6.008C29.3365 6.0916 29.253 6.20303 29.2031 6.3304C29.1532 6.45778 29.1389 6.59631 29.1616 6.7312V24.8656C29.1389 25.0005 29.1532 25.139 29.2031 25.2664C29.253 25.3938 29.3365 25.5052 29.4448 25.5888L31.9408 28.056V28.6H19.3904V28.0576L21.976 25.5296C22.2304 25.2736 22.2304 25.1984 22.2304 24.808V10.1488L15.0432 28.5392H14.0736L5.7056 10.1488V22.4752C5.6368 22.992 5.808 23.5152 6.1696 23.8896L9.5312 27.9984V28.5392H0V27.9984L3.36 23.8896C3.53778 23.7041 3.66972 23.4796 3.74529 23.234C3.82085 22.9884 3.83794 22.7286 3.7952 22.4752V8.2224Z" fill="black"/>
</svg>
