<svg width="32" height="32" viewBox="0 0 32 32" fill="none" xmlns="http://www.w3.org/2000/svg">
<path d="M32 6.08573C30.8232 6.60718 29.5591 6.95951 28.2301 7.11876C29.6013 6.29824 30.6272 5.00685 31.1164 3.48554C29.828 4.25078 28.418 4.78943 26.9476 5.07807C25.9588 4.0223 24.6491 3.32252 23.2218 3.08737C21.7945 2.85222 20.3296 3.09486 19.0543 3.77762C17.7791 4.46038 16.7649 5.54506 16.1693 6.86326C15.5737 8.18145 15.43 9.65941 15.7604 11.0677C13.1499 10.9366 10.5961 10.2581 8.26485 9.07617C5.93354 7.89425 3.87681 6.23535 2.22813 4.20711C1.66441 5.17954 1.34026 6.30699 1.34026 7.50773C1.33963 8.58867 1.60582 9.65306 2.11522 10.6064C2.62461 11.5598 3.36145 12.3728 4.26037 12.9731C3.21786 12.9399 2.19836 12.6582 1.28671 12.1514V12.236C1.2866 13.7521 1.81102 15.2215 2.77098 16.3949C3.73094 17.5683 5.06731 18.3735 6.55333 18.6738C5.58624 18.9355 4.57231 18.9741 3.58813 18.7865C4.0074 20.091 4.82409 21.2317 5.92389 22.049C7.02368 22.8662 8.35151 23.3191 9.72148 23.3443C7.39587 25.1699 4.52376 26.1602 1.56716 26.1558C1.04343 26.156 0.520146 26.1254 0 26.0642C3.00111 27.9938 6.49462 29.0179 10.0625 29.0139C22.1404 29.0139 28.7431 19.0106 28.7431 10.3348C28.7431 10.053 28.736 9.76828 28.7233 9.48642C30.0076 8.55764 31.1162 7.40752 31.9972 6.08996L32 6.08573Z" fill="black"/>
</svg>
